<svg width="360" height="96" viewBox="0 0 360 96" fill="none" xmlns="http://www.w3.org/2000/svg">
  <rect width="360" height="96" fill="none"/>
  <g transform="translate(0 10)">
    <ellipse cx="50" cy="48" rx="42" ry="36" fill="#8B6B4D"/>
    <circle cx="32" cy="22" r="12" fill="#8B6B4D"/>
    <circle cx="68" cy="22" r="12" fill="#8B6B4D"/>
    <circle cx="50" cy="52" r="25" fill="#FFF8F0"/>
    <circle cx="40" cy="42" r="4" fill="#1D2A44"/>
    <circle cx="60" cy="42" r="4" fill="#1D2A44"/>
    <path d="M46 54c3 3 7 3 10 0" stroke="#1D2A44" stroke-width="4" stroke-linecap="round"/>
    <circle cx="32" cy="54" r="5" fill="#F6A8B5" opacity=".72"/>
    <circle cx="68" cy="54" r="5" fill="#F6A8B5" opacity=".72"/>
    <rect x="2" y="66" width="96" height="16" rx="8" fill="#FFF8F0"/>
    <circle cx="26" cy="72" r="7" fill="#8B6B4D"/>
    <circle cx="74" cy="72" r="7" fill="#8B6B4D"/>
  </g>
  <text x="118" y="59" fill="#1D2A44" font-family="Plus Jakarta Sans, Inter, Arial, sans-serif" font-size="35" font-weight="900" letter-spacing="4">OTTERLY</text>
  <rect x="302" y="31" width="37" height="28" rx="9" fill="#FFD166"/>
  <rect x="311" y="39" width="18" height="3" rx="1.5" fill="#8B6B4D" opacity=".7"/>
  <rect x="311" y="47" width="12" height="3" rx="1.5" fill="#8B6B4D" opacity=".45"/>
</svg>
